<?xml version="1.0" standalone="no"?>
<!DOCTYPE svg PUBLIC "-//W3C//DTD SVG 20010904//EN"
 "http://www.w3.org/TR/2001/REC-SVG-20010904/DTD/svg10.dtd">
<svg version="1.0" xmlns="http://www.w3.org/2000/svg"
 width="920.000000pt" height="886.000000pt" viewBox="0 0 920.000000 886.000000"
 preserveAspectRatio="xMidYMid meet">

<g transform="translate(0.000000,886.000000) scale(0.100000,-0.100000)"
fill="#000000" stroke="none">
<path d="M4475 8133 c-16 -2 -74 -13 -127 -24 -418 -84 -793 -338 -1034 -699
-388 -584 -359 -1343 73 -1898 35 -45 63 -89 61 -97 -2 -8 -83 -112 -182 -231
l-179 -218 54 -48 c30 -26 59 -47 65 -45 6 1 89 97 184 212 95 116 176 211
181 213 5 2 30 -14 56 -36 208 -174 459 -294 736 -354 151 -32 455 -32 614 0
312 63 591 208 817 423 92 88 256 284 245 293 -11 8 -203 106 -205 104 -1 -2
-24 -32 -50 -68 -114 -157 -309 -317 -499 -413 -413 -207 -922 -194 -1320 34
-116 66 -239 160 -243 185 -3 20 101 154 120 154 6 0 29 -15 52 -33 320 -260
735 -342 1115 -222 121 38 205 79 313 151 232 154 399 379 484 652 l23 73 -45
-5 c-24 -4 -64 -8 -88 -11 -39 -5 -44 -9 -50 -36 -3 -17 -24 -69 -45 -115
-145 -308 -404 -511 -746 -586 -36 -8 -120 -12 -210 -12 -184 2 -298 28 -450
104 -97 48 -237 148 -243 173 -1 7 315 397 703 867 388 470 705 858 705 861 0
11 -191 115 -264 144 -260 102 -551 111 -810 24 -306 -102 -566 -328 -704
-612 -192 -392 -159 -841 89 -1204 27 -40 49 -78 49 -86 0 -21 -119 -157 -133
-151 -24 9 -127 160 -181 264 -105 204 -145 361 -153 600 -9 263 29 445 136
665 78 159 161 273 290 398 163 157 322 255 524 322 153 50 237 65 402 71 262
10 457 -33 694 -152 l144 -73 21 27 c12 14 42 53 68 87 l47 60 -22 17 c-49 38
-260 140 -359 173 -190 63 -270 76 -493 80 -110 2 -213 1 -230 -2z m436 -616
c111 -29 199 -64 199 -81 0 -22 -1258 -1541 -1277 -1541 -38 0 -144 209 -184
363 -27 100 -36 292 -20 403 67 453 419 806 877 879 100 16 297 4 405 -23z"/>
<path d="M1164 3688 c-48 -145 -89 -269 -91 -275 -4 -10 5 -9 38 1 208 65 376
220 479 439 22 47 40 88 40 91 0 3 -85 6 -189 6 l-189 0 -88 -262z"/>
<path d="M6470 2645 l0 -1065 80 0 80 0 0 1065 0 1065 -80 0 -80 0 0 -1065z"/>
<path d="M1175 3209 c-339 -35 -611 -257 -715 -584 -34 -107 -39 -310 -11
-430 69 -292 280 -505 581 -586 51 -14 119 -22 215 -26 183 -7 297 15 435 83
81 40 109 61 190 143 64 64 109 121 137 171 61 110 62 101 -10 137 l-64 31
-30 -61 c-90 -181 -238 -302 -433 -353 -95 -25 -290 -23 -393 5 -278 74 -471
296 -503 580 l-7 61 772 0 773 0 -8 93 c-13 181 -70 328 -177 458 -167 202
-454 308 -752 278z m312 -159 c219 -57 399 -233 448 -441 8 -35 15 -70 15 -76
0 -10 -144 -13 -685 -13 -560 0 -685 2 -685 13 0 30 34 126 66 187 99 189 304
322 544 353 63 9 221 -4 297 -23z"/>
<path d="M3209 3209 c-211 -21 -394 -111 -540 -266 -251 -268 -288 -674 -88
-983 125 -194 342 -332 583 -371 104 -16 290 -7 386 21 162 46 315 144 413
265 50 62 123 183 115 191 -3 2 -49 22 -104 45 -54 22 -104 43 -110 45 -6 3
-26 -21 -44 -53 -46 -82 -160 -191 -240 -229 -88 -43 -156 -57 -270 -57 -174
1 -314 57 -431 173 -276 273 -202 750 144 920 138 68 267 85 415 54 151 -31
298 -137 372 -267 18 -32 38 -56 44 -54 6 2 57 21 113 42 97 37 101 40 92 63
-16 42 -98 162 -147 214 -117 126 -313 225 -477 242 -118 13 -141 13 -226 5z"/>
<path d="M5190 3209 c-207 -20 -374 -100 -525 -253 -73 -73 -100 -109 -138
-183 -69 -133 -90 -220 -90 -373 -1 -152 16 -229 78 -355 81 -167 206 -290
380 -375 131 -64 195 -80 341 -87 230 -11 428 55 606 202 119 97 228 278 262
434 19 85 22 243 6 333 -25 135 -109 298 -208 401 -84 88 -238 182 -357 220
-110 35 -238 48 -355 36z m250 -256 c73 -20 174 -74 231 -123 59 -50 133 -159
159 -232 54 -154 46 -312 -24 -458 -42 -89 -167 -215 -256 -258 -90 -43 -170
-62 -267 -62 -104 0 -170 14 -258 55 -143 65 -257 194 -305 346 -30 94 -33
242 -6 334 53 180 198 332 371 390 109 36 242 40 355 8z"/>
<path d="M7673 3206 c-340 -65 -591 -293 -674 -611 -29 -112 -29 -298 0 -410
78 -295 290 -501 598 -577 125 -31 341 -31 466 0 221 55 392 191 507 405 l42
77 -59 26 c-32 14 -61 28 -65 30 -4 3 -26 -33 -50 -78 -56 -109 -173 -229
-270 -276 -117 -57 -210 -75 -367 -70 -112 4 -150 10 -216 31 -256 84 -430
298 -461 565 l-7 62 767 0 766 0 0 83 c0 114 -22 206 -74 312 -79 161 -187
270 -351 351 -49 24 -126 53 -170 64 -105 27 -286 34 -382 16z m377 -156 c105
-30 184 -75 262 -149 100 -94 162 -207 183 -338 l7 -43 -686 0 c-779 0 -700
-11 -670 91 69 232 281 412 542 459 80 15 278 4 362 -20z"/>
<path d="M6784 856 c-9 -24 4 -48 23 -44 12 2 18 12 18 28 0 29 -32 41 -41 16z"/>
<path d="M7474 855 c-8 -21 2 -45 19 -45 8 0 20 7 27 15 10 12 10 18 0 30 -7
8 -19 15 -27 15 -7 0 -16 -7 -19 -15z"/>
<path d="M6570 595 c0 -229 2 -265 15 -265 13 0 15 36 15 265 0 229 -2 265
-15 265 -13 0 -15 -36 -15 -265z"/>
<path d="M6790 535 c0 -176 2 -205 15 -205 13 0 15 29 15 205 0 176 -2 205
-15 205 -13 0 -15 -29 -15 -205z"/>
<path d="M6984 723 c63 -178 154 -393 166 -393 10 0 39 61 90 192 87 222 86
218 68 218 -8 0 -38 -66 -77 -167 -35 -93 -68 -172 -73 -178 -13 -14 -19 -2
-89 182 -41 108 -67 163 -76 163 -10 0 -13 -6 -9 -17z"/>
<path d="M7480 535 c0 -176 2 -205 15 -205 13 0 15 29 15 205 0 176 -2 205
-15 205 -13 0 -15 -29 -15 -205z"/>
<path d="M7700 535 c0 -176 2 -205 15 -205 13 0 15 22 15 141 0 159 11 193 73
226 44 23 135 23 171 0 57 -38 66 -68 66 -224 0 -123 2 -143 16 -143 13 0 15
19 12 153 -3 152 -3 154 -32 191 -35 46 -79 66 -146 66 -57 0 -93 -15 -129
-54 -29 -31 -41 -26 -41 20 0 19 -4 34 -10 34 -6 0 -10 -75 -10 -205z"/>
<path d="M8355 723 c-97 -51 -140 -153 -106 -255 26 -78 146 -149 225 -132 42
9 97 38 120 63 25 28 36 18 36 -32 0 -131 -61 -197 -180 -197 -71 0 -94 9
-135 56 -21 23 -34 31 -44 25 -10 -7 -4 -18 27 -49 98 -98 274 -75 336 43 19
37 21 60 24 268 3 201 2 227 -12 227 -12 0 -16 -10 -16 -39 0 -22 -4 -42 -8
-45 -5 -3 -21 9 -37 26 -16 17 -44 37 -62 44 -43 19 -131 17 -168 -3z m173
-27 c61 -32 102 -99 102 -165 0 -14 -9 -44 -21 -68 -45 -94 -176 -127 -261
-67 -143 101 -75 314 100 314 29 0 65 -6 80 -14z"/>
</g>
</svg>
